HIERARCHY
ROOT root
{
	OFFSET	0	13.1	24.9
	CHANNELS 6  Xposition Yposition Zposition Xrotation Yrotation Zrotation
	JOINT spine_1
	{
		OFFSET	0	9.99999	0
		CHANNELS 3  Xrotation Yrotation Zrotation
		JOINT spine_2
		{
			OFFSET	0	112	-10
			CHANNELS 3  Xrotation Yrotation Zrotation
			JOINT spine_3
			{
				OFFSET	0	206.5	19.3
				CHANNELS 3  Xrotation Yrotation Zrotation
				JOINT spine_4
				{
					OFFSET	0	110.4	14.6
					CHANNELS 3  Xrotation Yrotation Zrotation
					JOINT neck_1
					{
						OFFSET	0	71.8	-50.3
						CHANNELS 3  Xrotation Yrotation Zrotation
						JOINT neck_2
						{
							OFFSET	0	86.2	-25.8
							CHANNELS 3  Xrotation Yrotation Zrotation
							JOINT head_ee
							{
								OFFSET	0	179.8	-8.7
								CHANNELS 3  Xrotation Yrotation Zrotation
								End Site
								{
									OFFSET	1	0	0
								}
							}
						}
					}
					JOINT left_clavicle
					{
						OFFSET	-43.2	22.4	-70.8
						CHANNELS 3  Xrotation Yrotation Zrotation
						JOINT left_shoulder
						{
							OFFSET	-93.9	-5.79999	48.7
							CHANNELS 3  Xrotation Yrotation Zrotation
							JOINT left_elbow
							{
								OFFSET	-291.4	-30.8	15.2
								CHANNELS 3  Xrotation Yrotation Zrotation
								JOINT left_lowarm_twist
								{
									OFFSET	-110.7	-3.89999	13.6
									CHANNELS 3  Xrotation Yrotation Zrotation
									JOINT left_hand
									{
										OFFSET	-110.7	-3.89999	13.6
										CHANNELS 3  Xrotation Yrotation Zrotation
										JOINT left_ee
										{
											OFFSET	-80.8	-5.10001	12.1
											CHANNELS 3  Xrotation Yrotation Zrotation
											End Site
											{
												OFFSET	1	0	0
											}
										}
									}
								}
							}
						}
					}
					JOINT right_clavicle
					{
						OFFSET	43.2	22.4	-70.8
						CHANNELS 3  Xrotation Yrotation Zrotation
						JOINT right_shoulder
						{
							OFFSET	93.9	-5.79999	48.7
							CHANNELS 3  Xrotation Yrotation Zrotation
							JOINT right_elbow
							{
								OFFSET	291.4	-30.8	15.2
								CHANNELS 3  Xrotation Yrotation Zrotation
								JOINT right_lowarm_twist
								{
									OFFSET	110.7	-3.89999	13.6
									CHANNELS 3  Xrotation Yrotation Zrotation
									JOINT right_hand
									{
										OFFSET	110.7	-3.89999	13.6
										CHANNELS 3  Xrotation Yrotation Zrotation
										JOINT right_ee
										{
											OFFSET	80.8	-5.10001	12.1
											CHANNELS 3  Xrotation Yrotation Zrotation
											End Site
											{
												OFFSET	1	0	0
											}
										}
									}
								}
							}
						}
					}
				}
			}
		}
	}
	JOINT left_hip
	{
		OFFSET	-82.8	-127.5	0.300001
		CHANNELS 3  Xrotation Yrotation Zrotation
		JOINT left_knee
		{
			OFFSET	-28.2	-396.7	2.2
			CHANNELS 3  Xrotation Yrotation Zrotation
			JOINT left_ankle
			{
				OFFSET	-11.7	-411.3	35.4
				CHANNELS 3  Xrotation Yrotation Zrotation
				JOINT left_toes
				{
					OFFSET	0	-60	-88.6
					CHANNELS 3  Xrotation Yrotation Zrotation
					JOINT left_foot_ee
					{
						OFFSET	-22.5	-16.5	-42.2
						CHANNELS 3  Xrotation Yrotation Zrotation
						End Site
						{
							OFFSET	1	0	0
						}
					}
				}
			}
		}
	}
	JOINT right_hip
	{
		OFFSET	82.8	-127.5	0.300001
		CHANNELS 3  Xrotation Yrotation Zrotation
		JOINT right_knee
		{
			OFFSET	28.2	-396.7	2.2
			CHANNELS 3  Xrotation Yrotation Zrotation
			JOINT right_ankle
			{
				OFFSET	11.7	-411.3	35.4
				CHANNELS 3  Xrotation Yrotation Zrotation
				JOINT right_toes
				{
					OFFSET	0	-60	-88.6
					CHANNELS 3  Xrotation Yrotation Zrotation
					JOINT right_foot_ee
					{
						OFFSET	22.5	-16.5	-42.2
						CHANNELS 3  Xrotation Yrotation Zrotation
						End Site
						{
							OFFSET	1	0	0
						}
					}
				}
			}
		}
	}
}
MOTION
Frames: 12
Frame Time: 0.02
1084.97 732.909 -1579.81 -4.06514 37.494 13.5319 4.18052 -0.482532 -1.34596 4.18144 -0.395915 -1.37393 4.19036 -0.202354 -1.41544 4.18781 -0.423336 -1.36574 -18.7825 6.47124 -2.30041 -19.0161 13.6734 0.454976 -0.0 0.0 -0.0 -3.01688 11.5626 -3.74124 -1.03821 -13.3903 65.1931 1.10372 -28.6667 0.282026 -38.438 -2.7866 3.94623 -2.75852 -4.44447 -20.925 -0.0 0.0 -0.0 2.8184 2.59494 -5.24377 -26.5361 29.3233 -67.0004 0.75738 20.5652 -0.137404 -23.1666 1.36351 -2.60934 0.625856 -2.44947 -5.18535 0.0 0.0 0.0 16.3138 5.81156 -17.1915 -12.9753 0.313183 1.96237 26.0374 22.553 -3.58835 14.4016 -0.0 -0.0 -0.0 0.0 -0.0 15.1621 9.98495 -10.3549 -5.3681 -0.183502 -0.803109 21.9402 -28.2358 3.18476 -25.2128 0.0 0.0 0.0 0.0 0.0 
1083.25 731.622 -1579.95 -4.45694 37.711 14.0075 4.11017 -0.481972 -1.38325 4.11115 -0.392984 -1.41111 4.12024 -0.192539 -1.45209 4.11754 -0.419431 -1.40348 -18.0699 5.98156 -4.36556 -18.2567 13.8654 -1.75367 -0.0 0.0 -0.0 -2.15537 11.5886 -2.27185 -1.19955 -13.153 64.0606 1.15789 -29.8369 0.308499 -38.3435 -2.77674 3.93917 -2.71369 -5.26582 -20.9913 -0.0 0.0 -0.0 2.91873 3.18091 -5.39889 -26.5904 29.1927 -67.2461 0.78749 21.3106 -0.148164 -22.9409 1.34529 -2.58688 0.440438 -2.61486 -4.0196 0.0 0.0 0.0 16.0822 6.28466 -17.0518 -11.5443 0.300565 1.74317 26.7712 22.7574 -3.68006 14.5811 -0.0 -0.0 -0.0 0.0 -0.0 16.4208 9.50603 -10.0781 -3.92486 -0.141583 -0.585588 22.6407 -27.4826 3.26024 -24.5298 0.0 0.0 0.0 0.0 0.0 
1078.82 733.334 -1580.63 -5.01509 38.6375 14.7591 3.94054 -0.534217 -1.61603 3.94189 -0.430316 -1.64673 3.95351 -0.191778 -1.69118 3.94981 -0.456426 -1.63969 -17.516 4.69417 -5.67829 -17.5997 12.149 -3.54706 -0.0 0.0 -0.0 -1.61532 11.6908 -1.34112 -1.922 -12.9846 63.681 1.18826 -30.4812 0.323758 -37.8934 -2.72996 3.90529 -2.65745 -5.4634 -20.6788 -0.0 0.0 -0.0 2.94367 3.82795 -5.40061 -26.5246 29.0029 -67.4596 0.761975 20.6795 -0.139022 -21.5802 1.23736 -2.45 0.169893 -2.15909 -2.03499 0.0 0.0 0.0 15.7288 8.72258 -17.0392 -7.63562 0.238254 1.14676 29.9741 22.6292 -4.05091 15.3784 -0.0 -0.0 -0.0 0.0 -0.0 17.6982 9.20176 -9.61246 -2.53273 -0.0959649 -0.376812 23.0088 -27.4311 3.30684 -23.2939 0.0 0.0 0.0 0.0 0.0 
1075.0 731.668 -1582.72 -6.08023 38.7693 15.7479 3.95238 -0.464061 -1.57078 3.95368 -0.363181 -1.59712 3.96308 -0.132624 -1.63251 3.95958 -0.38875 -1.59109 -19.4482 3.5144 -5.50205 -19.4943 9.61964 -3.68505 -0.0 0.0 -0.0 -1.16991 12.7352 -0.437875 -3.06376 -14.5261 63.2239 1.30417 -32.8628 0.384628 -39.7722 -2.92697 4.04425 -2.10002 -9.29574 -18.436 -0.0 0.0 -0.0 2.81987 4.16496 -5.1283 -26.3227 29.1501 -67.6822 0.844316 22.6969 -0.169456 -19.9808 1.11471 -2.28591 -0.0226639 -2.22831 -0.785869 0.0 0.0 0.0 16.3989 10.1127 -17.2684 -6.38161 0.209656 0.956445 30.1632 22.7696 -4.07533 16.3754 -0.0 -0.0 -0.0 0.0 -0.0 18.3586 8.8547 -9.13631 -1.28047 -0.0506016 -0.189986 22.8023 -22.8731 3.19533 -22.6824 0.0 0.0 0.0 0.0 0.0 
1070.17 729.622 -1586.8 -6.7609 39.2155 16.3655 4.04516 -0.553627 -1.56875 4.04641 -0.452695 -1.60079 4.05833 -0.223489 -1.64847 4.05486 -0.480996 -1.59251 -17.7418 3.81404 -7.08953 -17.7526 11.2129 -5.18826 -0.0 0.0 -0.0 -0.74197 12.6372 0.259555 -3.67624 -12.7292 63.2027 1.22177 -31.1824 0.340935 -38.7023 -2.81422 3.96591 -2.58449 -6.65193 -20.7072 -0.0 0.0 -0.0 2.81029 4.39843 -5.0912 -26.0321 29.4317 -68.0033 0.770108 20.8812 -0.141908 -20.2384 1.13415 -2.31257 -0.180938 -2.62756 0.0954393 0.0 0.0 0.0 16.6551 10.9971 -17.1837 -5.7262 0.193053 0.857234 32.871 22.5824 -4.37167 16.5969 -0.0 -0.0 -0.0 0.0 -0.0 18.817 9.52746 -9.04532 -1.08095 -0.042997 -0.160311 23.3557 -26.3021 3.32769 -22.1174 0.0 0.0 0.0 0.0 0.0 
1066.82 726.72 -1584.55 -7.07739 38.8578 15.6291 4.12305 -0.430039 -1.49132 4.12423 -0.334282 -1.51566 4.13235 -0.120151 -1.54742 4.1292 -0.363001 -1.50904 -17.6424 3.30848 -6.76414 -17.6353 10.0741 -5.08408 -0.0 0.0 -0.0 -0.0275724 12.7436 1.45865 -4.63195 -12.7195 63.0717 1.21282 -30.9961 0.336313 -38.9296 -2.83805 3.98273 -2.02363 -7.02986 -16.8825 -0.0 0.0 -0.0 3.09542 5.03224 -5.61504 -25.8838 29.6151 -67.0901 0.79687 21.5413 -0.151591 -19.6557 1.09034 -2.25215 -0.338604 -2.0099 1.40322 0.0 0.0 0.0 17.0452 10.9087 -16.5495 -7.00141 0.224311 1.05043 34.0338 21.1612 -4.4644 16.8796 -0.0 -0.0 -0.0 0.0 -0.0 18.5434 9.04348 -8.605 -0.380222 -0.0154695 -0.0562984 26.7834 -22.1771 3.67091 -20.3269 0.0 0.0 0.0 0.0 0.0 
1060.42 731.057 -1591.54 -6.70111 39.3875 14.9876 4.0143 -0.421863 -1.30341 4.01518 -0.338076 -1.32761 4.02251 -0.14746 -1.36201 4.0201 -0.360695 -1.32164 -15.4196 0.649095 -1.7185 -15.416 2.25147 -1.40126 -0.0 0.0 -0.0 0.784897 13.0313 2.83318 -7.04477 -13.8185 61.2837 1.25954 -31.9603 0.360709 -38.0743 -2.74873 3.91895 -1.47629 -8.37649 -13.6511 -0.0 0.0 -0.0 2.84872 5.35167 -5.09438 -25.7974 29.6944 -67.5937 0.839397 22.578 -0.167563 -18.5254 1.00713 -2.1337 -0.129143 0.932845 1.25807 0.0 0.0 0.0 16.3857 11.687 -15.9034 -7.16404 0.227988 1.07512 31.4488 21.1916 -4.18677 18.4439 -0.0 -0.0 -0.0 0.0 -0.0 19.5309 8.82678 -8.58715 0.0972168 0.00401548 0.0143784 28.5372 -22.4736 3.8826 -19.966 0.0 0.0 0.0 0.0 0.0 
1058.87 729.706 -1595.06 -6.02403 40.5065 13.8077 3.6151 -0.436051 -1.41456 3.61615 -0.345165 -1.43943 3.62435 -0.128465 -1.47464 3.62149 -0.359721 -1.43586 -14.5838 0.560946 -4.03042 -14.5481 3.49544 -3.63594 -0.0 0.0 -0.0 1.4259 11.2133 3.74265 -9.64897 -15.2523 61.0225 1.20234 -30.7771 0.330933 -38.7682 -2.82112 3.97079 -1.36974 -6.87034 -12.2516 -0.0 0.0 -0.0 2.72503 5.69258 -4.81807 -25.4553 29.6177 -67.5737 0.891717 23.8322 -0.18818 -18.3728 0.996081 -2.1176 -0.0232445 3.27496 1.54189 0.0 0.0 0.0 15.9513 12.0751 -15.1682 -8.33809 0.25245 1.25362 32.7093 20.8007 -4.3161 20.1047 -0.0 -0.0 -0.0 0.0 -0.0 20.9559 8.85483 -7.74905 -1.73141 -0.0674082 -0.257151 30.0675 -20.0053 4.01164 -19.1236 0.0 0.0 0.0 0.0 0.0 
1059.03 734.237 -1595.37 -6.81142 40.9492 14.132 3.48962 -0.365927 -1.58264 3.49098 -0.264491 -1.60271 3.4978 -0.0209085 -1.62425 3.49423 -0.277132 -1.60057 -15.0532 -0.663801 -2.41493 -15.0368 0.163275 -2.50071 -0.0 0.0 -0.0 1.9853 10.1832 4.61897 -11.0806 -14.6402 61.2239 1.21035 -30.9445 0.335041 -37.1841 -2.6568 3.85118 -1.01259 -7.8246 -10.211 -0.0 0.0 -0.0 2.62662 6.50057 -4.5531 -23.1158 29.8016 -68.3663 0.849381 22.8191 -0.171416 -18.1898 0.982882 -2.09823 0.0180532 2.88395 1.0983 0.0 0.0 0.0 16.5626 12.2901 -14.6737 -9.40697 0.271535 1.41652 29.2006 20.2075 -3.91744 19.814 -0.0 -0.0 -0.0 0.0 -0.0 21.6276 10.0926 -7.4428 -1.3932 -0.0548529 -0.206765 29.0082 -20.8494 3.90663 -17.3022 0.0 0.0 0.0 0.0 0.0 
1059.13 734.972 -1597.31 -7.85713 41.3242 14.1135 3.30988 -0.377829 -1.52921 3.31114 -0.279768 -1.55015 3.31825 -0.0389727 -1.5747 3.3149 -0.287148 -1.5488 -14.8353 -0.75003 -1.31886 -14.8307 -0.646478 -1.49264 -0.0 0.0 -0.0 2.57017 9.33284 5.57678 -12.7149 -15.434 61.1138 1.18944 -30.5061 0.324359 -38.3738 -2.7799 3.94144 -0.445814 -10.6585 -7.55815 -0.0 0.0 -0.0 2.75394 6.88075 -4.78046 -23.3009 29.7745 -67.9005 0.942041 25.0162 -0.20899 -18.2613 0.988034 -2.10581 -0.29386 2.97339 3.23404 0.0 0.0 0.0 16.9741 12.2863 -13.6369 -9.57965 0.274333 1.44287 30.2495 20.3029 -4.03717 20.2089 -0.0 -0.0 -0.0 0.0 -0.0 21.6835 9.2121 -6.55745 -0.457949 -0.0185859 -0.0678193 29.0785 -19.2416 3.88792 -17.8774 0.0 0.0 0.0 0.0 0.0 
1055.15 740.578 -1601.53 -7.39208 42.3515 12.9212 2.9526 -0.382193 -1.26044 2.95344 -0.30122 -1.2822 2.95998 -0.093014 -1.31382 2.95769 -0.299323 -1.28265 -14.4343 -2.1613 -0.439088 -14.4455 -3.8625 -1.11027 -0.0 0.0 -0.0 2.80179 9.22659 5.97507 -14.3238 -16.1461 61.3135 1.18083 -30.3243 0.319996 -37.7185 -2.71185 3.89203 -0.201201 -11.2786 -6.16122 -0.0 0.0 -0.0 2.61088 6.95844 -4.48305 -22.7453 29.9787 -67.9393 0.949754 25.1957 -0.212262 -18.3566 0.994912 -2.11589 -0.171528 3.96766 2.83519 0.0 0.0 0.0 16.9021 12.4157 -13.0317 -11.0628 0.29509 1.6695 26.1443 19.3086 -3.54953 20.425 -0.0 -0.0 -0.0 0.0 -0.0 21.5977 9.48503 -5.55935 -2.83779 -0.106396 -0.422468 27.6328 -20.2919 3.73874 -17.312 0.0 0.0 0.0 0.0 0.0 
1055.39 743.684 -1603.47 -8.20983 42.8098 13.3323 2.85577 -0.397074 -1.20604 2.85652 -0.319532 -1.22886 2.86322 -0.117463 -1.26427 2.86113 -0.315642 -1.22987 -15.2896 -1.71284 0.0427614 -15.2993 -3.30309 -0.534547 -0.0 0.0 -0.0 2.88435 9.34565 6.12562 -15.4952 -16.9064 61.6792 1.19025 -30.5232 0.32477 -38.4069 -2.78335 3.94391 -0.0119949 -11.0626 -4.7871 -0.0 0.0 -0.0 2.62853 7.21206 -4.49777 -21.7924 29.9409 -67.7182 0.959747 25.4274 -0.216535 -17.8162 0.956127 -2.05857 -0.183648 4.43477 3.1164 0.0 0.0 0.0 17.2724 12.4207 -12.5799 -10.0026 0.28085 1.50745 22.8517 19.8507 -3.15835 20.1004 -0.0 -0.0 -0.0 0.0 -0.0 20.9936 9.80432 -5.14556 -1.11727 -0.0443893 -0.165711 28.2789 -18.5949 3.7874 -17.1142 0.0 0.0 0.0 0.0 0.0 
